<svg id="card" xmlns="http://www.w3.org/2000/svg" width="254.415" height="251.178" viewBox="0 0 254.415 251.178">
  <g id="グループ_50" data-name="グループ 50" transform="translate(0 0)">
    <path id="パス_1475" data-name="パス 1475" d="M6.147,241.064H1.626V1.387H244V5.908H6.147Z" transform="translate(2.049 1.749)" fill="#7d6b2e"/>
    <circle id="楕円形_4" data-name="楕円形 4" cx="5.666" cy="5.666" r="5.666" transform="translate(0 239.847)" fill="#7d6b2e"/>
    <path id="パス_1476" data-name="パス 1476" d="M118.86,5.666A5.666,5.666,0,1,1,113.194,0a5.666,5.666,0,0,1,5.666,5.666Z" transform="translate(135.555 0)" fill="#7d6b2e"/>
    <path id="パス_1477" data-name="パス 1477" d="M74.33,53.446c-1.262-4.057-5.461-5.977-8.334-6.16a13.119,13.119,0,0,0-5.583,1.152C55.56,50.6,27.833,65.794,13.839,91.607-.254,117.6,2.215,148.937,3.041,154.186A14.305,14.305,0,0,0,4.5,158.514a24.724,24.724,0,0,1,.6-4.168c-.737-5.566,2.042-32.154,16.377-58.6,15.678-28.917,35.57-43.623,40.365-45.765a9.977,9.977,0,0,1,1.289-.413,10.582,10.582,0,0,1,2.956-.337A6.828,6.828,0,0,1,72.17,54.25a6.777,6.777,0,0,1-.576,6.161,9.264,9.264,0,0,1-3.531,3.248,5.44,5.44,0,0,1-2.214.559,5.019,5.019,0,0,1-4.881-3.051A3.844,3.844,0,0,1,62.1,56.427c.424-.326,1.592-1.011,2.233-.65.8.469-1.038,2.921,1.332,3.4,1.923.416,2.02-2.3,2.02-2.3-.363-1.8-1.707-2.613-3.757-2.187a8.144,8.144,0,0,0-3.169,1.492,5.239,5.239,0,0,0-2.042,2.952,4.649,4.649,0,0,0,.3,3.217,5.493,5.493,0,0,0,5.735,3.117,9.179,9.179,0,0,0,3.682-.964,15.063,15.063,0,0,0,4.945-4.127,7.689,7.689,0,0,0,.949-6.925Zm-55.2,40.373c-7.378,13.609-13.626,37.1-13.626,37.1s2.7-22.635,11.109-38.153,25.91-30.128,25.91-30.128S26.505,80.21,19.128,93.819Z" transform="translate(2.95 59.593)" fill="#7d6b2e"/>
    <path id="パス_1478" data-name="パス 1478" d="M59.818,72.839a15.069,15.069,0,0,0,4.127-4.945,9.179,9.179,0,0,0,.965-3.682,5.493,5.493,0,0,0-3.117-5.736,4.651,4.651,0,0,0-3.217-.3,5.24,5.24,0,0,0-2.952,2.042,8.138,8.138,0,0,0-1.492,3.169c-.427,2.051.384,3.394,2.186,3.757,0,0,2.719-.1,2.3-2.02-.477-2.37-2.929-.536-3.4-1.332-.36-.641.325-1.809.65-2.233a3.845,3.845,0,0,1,4.739-1.132,5.02,5.02,0,0,1,3.051,4.881,5.439,5.439,0,0,1-.559,2.214,9.26,9.26,0,0,1-3.247,3.531,6.776,6.776,0,0,1-6.161.576,6.828,6.828,0,0,1-5.015-6.081,10.571,10.571,0,0,1,.338-2.956,9.969,9.969,0,0,1,.413-1.289C51.574,56.507,66.279,36.615,95.2,20.937,121.639,6.6,148.228,3.822,153.793,4.56a24.74,24.74,0,0,1,4.168-.6A14.3,14.3,0,0,0,153.634,2.5c-5.249-.827-36.585-3.295-62.579,10.8-25.813,13.994-41,41.721-43.169,46.574a13.125,13.125,0,0,0-1.152,5.583c.183,2.873,2.1,7.072,6.16,8.334a7.69,7.69,0,0,0,6.925-.949Zm2.264-30.86s14.61-17.5,30.128-25.91S130.364,4.96,130.364,4.96s-23.489,6.248-37.1,13.626S62.083,41.98,62.083,41.98Z" transform="translate(58.896 2.267)" fill="#7d6b2e"/>
    <g id="グループ_49" data-name="グループ 49" transform="translate(25.9 26.073)">
      <g id="グループ_48" data-name="グループ 48" transform="translate(0.87 1.678)">
        <g id="グループ_47" data-name="グループ 47">
          <path id="パス_1479" data-name="パス 1479" d="M19.385,72.863a.848.848,0,0,1,0-1.7l51.595-.1-.093-51.214a.848.848,0,0,1,.845-.849h0a.847.847,0,0,1,.848.847l.095,52.062a.848.848,0,0,1-.845.849l-52.443.1Z" transform="translate(-3.402 -3.788)" fill="#7d6b2e"/>
          <path id="パス_1480" data-name="パス 1480" d="M42.724,43.76a.853.853,0,0,1-.157-.014l-30.035-5.63a.848.848,0,0,1,.314-1.667l30.035,5.63a.848.848,0,0,1-.157,1.681Z" transform="translate(-11.842 18.18)" fill="#7d6b2e"/>
          <path id="パス_1481" data-name="パス 1481" d="M58.285,59.368a.853.853,0,0,1-.157-.014L29.97,54.075a.848.848,0,0,1,.314-1.667l26.936,5.05L52.091,30.645a.847.847,0,0,1,.673-.991.831.831,0,0,1,.991.673l5.362,28.034a.848.848,0,0,1-.832,1.007Z" transform="translate(10.14 9.609)" fill="#7d6b2e"/>
          <path id="パス_1482" data-name="パス 1482" d="M42.61,43.875a.848.848,0,0,1-.832-.689l-5.72-29.9a.847.847,0,0,1,.673-.991.839.839,0,0,1,.991.673l5.72,29.9a.848.848,0,0,1-.673.991.773.773,0,0,1-.159.015Z" transform="translate(18.667 -12.276)" fill="#7d6b2e"/>
          <path id="パス_1483" data-name="パス 1483" d="M72.735,73.688a.865.865,0,0,1-.243-.035h0c-.027-.008-.053-.018-.08-.028h0q-9.385-3.81-18.778-7.593Q35.962,58.9,18.33,51.681a.847.847,0,1,1,.645-1.568c11.742,4.838,23.518,9.591,35.294,14.343l7.749,3.129a.837.837,0,0,1,.739-.219,25.538,25.538,0,0,1,7.82,2.851C63.973,55.908,58.149,41.058,52.5,26.665L49.67,19.447a.847.847,0,1,1,1.576-.623l2.837,7.221C60.11,41.412,66.34,57.3,73.5,72.466a1.091,1.091,0,0,1,.055.145.821.821,0,0,1,.031.219v0a.855.855,0,0,1-.088.386h0a.7.7,0,0,1-.084.134.824.824,0,0,1-.258.225h0a.833.833,0,0,1-.205.083h0s0,0,0,0h0a.841.841,0,0,1-.2.024Z" transform="translate(-4.325 -4.696)" fill="#7d6b2e"/>
          <path id="パス_1484" data-name="パス 1484" d="M33.372,37.466a.841.841,0,0,1-.477-.147L15.466,25.441a.848.848,0,0,1,.954-1.4l17.43,11.878a.848.848,0,0,1-.477,1.549Z" transform="translate(-7.742 2.369)" fill="#7d6b2e"/>
          <path id="パス_1485" data-name="パス 1485" d="M62.9,63.646a.847.847,0,0,1-.406-.1h0s0,0,0,0h0s0,0,0,0h0s0,0,0,0h0s0,0,0,0h0a.54.54,0,0,1-.053-.033c-1.413-.957-2.837-1.9-4.259-2.845-3.183-2.111-6.433-4.264-9.57-6.588Q37.289,46.361,25.979,38.66a.848.848,0,0,1,.954-1.4q8.024,5.464,16.043,10.929a.862.862,0,0,1,.881-.071,78.752,78.752,0,0,1,13.449,8.392c-6.429-8.943-13.151-18.473-20.4-28.924a.847.847,0,1,1,1.391-.967c9.109,13.126,17.379,24.8,25.282,35.675a.805.805,0,0,1,.13.258s0,0,0,0a.9.9,0,0,1,.036.254h0a.835.835,0,0,1-.111.407h0a.878.878,0,0,1-.119.161.833.833,0,0,1-.311.211h0s0,0,0,0h0s0,0,0,0h0a.831.831,0,0,1-.194.049h0s0,0,0,0H62.99a.854.854,0,0,1-.093.005Z" transform="translate(5.512 5.347)" fill="#7d6b2e"/>
          <path id="パス_1486" data-name="パス 1486" d="M34.99,33.24a.843.843,0,0,1-.7-.367q-5.4-7.835-10.756-15.7a.848.848,0,1,1,1.4-.956q5.358,7.857,10.751,15.69a.848.848,0,0,1-.7,1.329Z" transform="translate(2.714 -7.767)" fill="#7d6b2e"/>
          <path id="パス_1487" data-name="パス 1487" d="M63.661,64.674a.846.846,0,0,1-.6-.247l-40.2-40.048a.848.848,0,0,1,1.2-1.2l40.2,40.048a.848.848,0,0,1-.6,1.448Z" transform="translate(1.74 1.157)" fill="#7d6b2e"/>
        </g>
        <path id="パス_1488" data-name="パス 1488" d="M25.352,22.48l.832-7.684-3.1,7.082L16.85,17.315l4.586,6.222-7.071,3.121,7.681-.86-.832,7.684,3.1-7.082,6.238,4.563-4.586-6.222,7.071-3.121Z" transform="translate(-8.662 -9.099)" fill="#7d6b2e"/>
      </g>
      <path id="パス_1489" data-name="パス 1489" d="M38.214,14.588c-.4.093-.769.181-1.1.261a4.3,4.3,0,0,1-5.16-2.205c-.174-.3-.364-.623-.575-.978a.269.269,0,0,0-.493.2c.093.4.18.769.26,1.1a4.3,4.3,0,0,1-2.206,5.16c-.3.174-.623.364-.978.575a.269.269,0,0,0,.2.493c.4-.093.769-.18,1.1-.26a4.3,4.3,0,0,1,5.161,2.205c.174.3.364.623.575.978a.269.269,0,0,0,.493-.2c-.093-.4-.181-.769-.26-1.1a4.3,4.3,0,0,1,2.205-5.16c.3-.174.623-.364.978-.575a.269.269,0,0,0-.2-.493Z" transform="translate(9.179 -11.533)" fill="#7d6b2e"/>
      <path id="パス_1490" data-name="パス 1490" d="M51.147,17.015c-.423-.043-.809-.08-1.162-.114A4.427,4.427,0,0,1,45.7,13.035c-.071-.348-.147-.728-.234-1.144a.276.276,0,0,0-.545.028c-.044.422-.081.808-.115,1.161a4.427,4.427,0,0,1-3.866,4.287c-.347.07-.728.147-1.144.234a.276.276,0,0,0,.028.545c.423.044.809.081,1.162.115a4.428,4.428,0,0,1,4.287,3.865c.07.348.147.728.234,1.143a.276.276,0,0,0,.545-.028c.043-.422.08-.808.114-1.161a4.427,4.427,0,0,1,3.865-4.287c.347-.07.728-.147,1.144-.234a.276.276,0,0,0-.028-.545Z" transform="translate(23.991 -11.359)" fill="#7d6b2e"/>
      <path id="パス_1491" data-name="パス 1491" d="M14.538,38.361c.092-.4.178-.77.257-1.105A4.3,4.3,0,0,0,12.57,32.1c-.3-.173-.625-.362-.98-.571a.269.269,0,0,1,.2-.493c.4.092.77.177,1.105.256a4.3,4.3,0,0,0,5.152-2.225c.173-.3.362-.625.571-.98a.269.269,0,0,1,.493.2c-.092.4-.178.77-.256,1.105a4.305,4.305,0,0,0,2.224,5.153c.3.172.625.362.98.571a.269.269,0,0,1-.2.493c-.4-.092-.77-.178-1.105-.256A4.3,4.3,0,0,0,15.6,37.576c-.173.3-.362.625-.571.98a.269.269,0,0,1-.493-.2Z" transform="translate(-11.457 9.171)" fill="#7d6b2e"/>
      <path id="パス_1492" data-name="パス 1492" d="M17.008,51.282c-.045-.423-.084-.808-.119-1.161a4.426,4.426,0,0,0-3.881-4.272c-.348-.069-.728-.144-1.145-.229a.276.276,0,0,1,.026-.545c.422-.045.808-.084,1.161-.119a4.428,4.428,0,0,0,4.272-3.882c.069-.348.144-.728.229-1.145a.276.276,0,0,1,.545.026c.045.422.084.808.119,1.161A4.428,4.428,0,0,0,22.1,45.389c.348.069.728.144,1.144.229a.276.276,0,0,1-.026.545c-.422.045-.808.083-1.161.119a4.427,4.427,0,0,0-4.272,3.881c-.069.348-.144.728-.229,1.145a.276.276,0,0,1-.545-.026Z" transform="translate(-11.223 23.985)" fill="#7d6b2e"/>
    </g>
    <path id="パス_1493" data-name="パス 1493" d="M50.5,45.925A4.827,4.827,0,1,1,45.668,41.1,4.827,4.827,0,0,1,50.5,45.925Z" transform="translate(51.486 51.809)" fill="#7d6b2e"/>
    <path id="パス_1494" data-name="パス 1494" d="M7.424,7.165s-.945,5.68,1.881,8.552a19.488,19.488,0,0,0,5.83,3.481,74.453,74.453,0,0,1,7.727,4.411l.223-.223.34-.346.172-.229a78.981,78.981,0,0,1-4.3-7.855,19.98,19.98,0,0,0-3.428-5.928C13.044,6.155,7.424,7.165,7.424,7.165Z" transform="translate(9.168 8.816)" fill="#7d6b2e"/>
    <path id="パス_1495" data-name="パス 1495" d="M23.525,17.77a25.863,25.863,0,0,0-4.106-4.017c-3.6-2.642-7.506-2.845-9.077-2.408A4.4,4.4,0,0,0,7.888,12.8a1.653,1.653,0,0,0,.081,1.669A3.317,3.317,0,0,0,6.93,16.589a3.725,3.725,0,0,0,1.844,3.87,5.756,5.756,0,0,1,.751-2.938,7.7,7.7,0,0,1,3.092-2.846c1.122-.353,3.634-1.185,7.749,1.089C23.4,17.443,23.525,17.77,23.525,17.77Z" transform="translate(8.717 14.075)" fill="#7d6b2e"/>
    <path id="パス_1496" data-name="パス 1496" d="M17.975,23.427a25.884,25.884,0,0,1-3.953-4.174c-2.6-3.656-2.806-7.635-2.379-9.235a4.505,4.505,0,0,1,1.429-2.5c.7-.528,1.64.08,1.64.08a3.231,3.231,0,0,1,2.078-1.06,3.643,3.643,0,0,1,3.8,1.872,5.494,5.494,0,0,0-2.885.768,7.746,7.746,0,0,0-2.792,3.151c-.345,1.142-1.159,3.7,1.081,7.884,1.654,3.088,1.975,3.213,1.975,3.213Z" transform="translate(14.458 8.224)" fill="#7d6b2e"/>
  </g>
</svg>
