<svg xmlns="http://www.w3.org/2000/svg" width="646.932" height="636.546" viewBox="0 0 646.932 636.546">
  <g id="グループ_231" data-name="グループ 231" transform="translate(23389.967 16192.772)">
    <path id="パス_10416" data-name="パス 10416" d="M692.4,319.929c1.075,3.583-.514,7.254-3.548,8.2-3.024.979-6.446-1-7.684-4.547-1.229-3.518.322-7.308,3.5-8.338,3.194-1,6.655,1.1,7.73,4.686m22.515-5.945c.646,2.915-.858,5.711-3.334,6.347-2.483.612-5.1-1.242-5.855-4.138s.737-5.762,3.322-6.4c2.58-.66,5.217,1.262,5.866,4.19m22.9-4.244a3.833,3.833,0,0,1-2.864,4.543,3.889,3.889,0,0,1-4.138-3.445,3.777,3.777,0,0,1,2.858-4.581,3.827,3.827,0,0,1,4.144,3.483m23.142-2.6a2.6,2.6,0,0,1-2.135,2.91,2.735,2.735,0,0,1-.438-5.4,2.513,2.513,0,0,1,2.573,2.49m-92.778,21.212c1.091,2.78.064,5.834-2.3,6.81s-5.245-.459-6.435-3.2-.162-5.8,2.3-6.812,5.341.416,6.436,3.207m-23.436,10.42a3.581,3.581,0,1,1-5.013-2.051,3.848,3.848,0,0,1,5.013,2.051m-22.52,12.273a2.549,2.549,0,0,1-.618,3.528,2.6,2.6,0,0,1-3.436-1.1,2.515,2.515,0,0,1,.618-3.529,2.558,2.558,0,0,1,3.435,1.1" transform="translate(-23851.068 -16497.398)" fill="#7d6b2e"/>
    <path id="パス_10417" data-name="パス 10417" d="M375.421,524.552c2.975,2.267,3.849,6.171,1.948,8.719-1.871,2.57-5.8,2.978-8.889.838-3.062-2.124-4.036-6.1-2.068-8.8,2-2.682,6.032-3.019,9.008-.753m14.72-18.043c2.236,1.979,2.663,5.124,1.034,7.095-1.648,1.954-4.859,1.995-7.169.093s-2.792-5.094-1.074-7.129c1.7-2.051,4.962-2.046,7.209-.058m16.029-16.892a3.833,3.833,0,0,1,.353,5.359,3.888,3.888,0,0,1-5.373-.355,3.775,3.775,0,0,1-.38-5.385,3.827,3.827,0,0,1,5.4.382m17.2-15.7a2.6,2.6,0,0,1-.016,3.609,2.735,2.735,0,0,1-3.529-4.112,2.513,2.513,0,0,1,3.545.5m-62.591,71.695c2.516,1.608,3.481,4.682,2.142,6.861s-4.512,2.711-7.089,1.191-3.538-4.594-2.145-6.863,4.565-2.8,7.092-1.188m-12.835,22.2a3.582,3.582,0,1,1-5.262,1.287,3.849,3.849,0,0,1,5.262-1.287M336.935,590.98a2.549,2.549,0,0,1,1.573,3.217,2.594,2.594,0,0,1-3.426,1.129,2.515,2.515,0,0,1-1.573-3.218,2.558,2.558,0,0,1,3.426-1.129" transform="translate(-23694.564 -16589.986)" fill="#7d6b2e"/>
    <path id="パス_10418" data-name="パス 10418" d="M276.267,914.388c3.74.085,6.741,2.73,6.7,5.909,0,3.178-2.945,5.821-6.7,5.9-3.726.081-6.851-2.564-6.848-5.908.04-3.345,3.106-5.988,6.845-5.9m1.3-23.25c2.972.286,5.166,2.58,5.006,5.132-.185,2.55-2.757,4.47-5.744,4.289s-5.253-2.481-5.059-5.137c.169-2.658,2.812-4.572,5.8-4.284m3.038-23.087a3.833,3.833,0,0,1,3.436,4.128,3.888,3.888,0,0,1-4.556,2.871,3.775,3.775,0,0,1-3.473-4.133,3.827,3.827,0,0,1,4.592-2.865m4.682-22.812a2.6,2.6,0,0,1,2.108,2.929,2.735,2.735,0,0,1-5.272-1.252,2.513,2.513,0,0,1,3.164-1.677m-8.5,94.791c2.982-.178,5.57,1.743,5.766,4.292s-2.057,4.846-5.035,5.13-5.563-1.637-5.769-4.292,2.046-4.951,5.038-5.13m2.668,25.509a3.581,3.581,0,1,1-3.5,4.134,3.848,3.848,0,0,1,3.5-4.134m4.714,25.211a2.548,2.548,0,0,1,3.164,1.678,2.594,2.594,0,0,1-2.108,2.927,2.515,2.515,0,0,1-3.164-1.678,2.557,2.557,0,0,1,2.108-2.927" transform="translate(-23659.389 -16794.857)" fill="#7d6b2e"/>
    <path id="パス_10419" data-name="パス 10419" d="M368.378,1340.295c3.075-2.129,7.058-1.753,8.894.842,1.866,2.573,1.039,6.44-1.95,8.712-2.966,2.256-7.049,1.952-9.013-.755-1.934-2.729-1.007-6.669,2.068-8.8m-12.611-19.576c2.573-1.515,5.7-.95,7.066,1.209,1.349,2.172.4,5.238-2.126,6.847s-5.707,1.08-7.112-1.182c-1.425-2.249-.411-5.351,2.173-6.874m-11.112-20.465a3.834,3.834,0,0,1,5.206,1.32,3.889,3.889,0,0,1-2,5,3.775,3.775,0,0,1-5.24-1.3,3.828,3.828,0,0,1,2.032-5.018m-9.621-21.207a2.6,2.6,0,0,1,3.427,1.131,2.735,2.735,0,0,1-5,2.086,2.513,2.513,0,0,1,1.574-3.217m48.843,81.683c2.308-1.9,5.53-1.863,7.188.083s1.184,5.129-1.059,7.11-5.463,1.945-7.19-.081-1.255-5.208,1.06-7.112m17.152,19.069a3.581,3.581,0,1,1-.4,5.4,3.847,3.847,0,0,1,.4-5.4m18.631,17.625a2.549,2.549,0,0,1,3.547-.5,2.6,2.6,0,0,1,.015,3.608,2.515,2.515,0,0,1-3.547.5,2.558,2.558,0,0,1-.015-3.607" transform="translate(-23694.539 -17033.518)" fill="#7d6b2e"/>
    <path id="パス_10420" data-name="パス 10420" d="M680.936,1639.6c1.236-3.53,4.679-5.566,7.69-4.547,3.022.985,4.627,4.6,3.544,8.195-1.074,3.569-4.555,5.724-7.735,4.686-3.169-1.071-4.735-4.8-3.5-8.334m-21.709-8.424c1.191-2.739,4.05-4.117,6.428-3.176,2.367.964,3.4,4,2.3,6.789s-3.982,4.228-6.449,3.225c-2.474-.983-3.478-4.088-2.282-6.838m-21.018-10.025a3.833,3.833,0,0,1,4.987-1.992,3.889,3.889,0,0,1,1.322,5.22,3.774,3.774,0,0,1-5,2.026,3.828,3.828,0,0,1-1.306-5.253m-20.248-11.5a2.6,2.6,0,0,1,3.438-1.1,2.735,2.735,0,0,1-2.821,4.626,2.512,2.512,0,0,1-.617-3.526m87.527,37.372c.752-2.89,3.378-4.758,5.864-4.157s3.973,3.453,3.323,6.375-3.276,4.784-5.864,4.16-4.077-3.476-3.323-6.378m25.085,5.346a3.581,3.581,0,1,1,2.85,4.606,3.847,3.847,0,0,1-2.85-4.606M756,1655.672a2.55,2.55,0,0,1,2.574-2.491,2.594,2.594,0,0,1,2.132,2.909,2.515,2.515,0,0,1-2.573,2.491,2.558,2.558,0,0,1-2.133-2.909" transform="translate(-23850.953 -17214.816)" fill="#7d6b2e"/>
    <path id="パス_10421" data-name="パス 10421" d="M1109.824,1643.4c-1.075-3.583.513-7.254,3.549-8.2,3.024-.979,6.447,1,7.684,4.546,1.229,3.519-.322,7.307-3.5,8.339-3.194,1-6.654-1.1-7.729-4.687m-22.515,5.946c-.646-2.916.858-5.712,3.333-6.348,2.483-.612,5.1,1.243,5.855,4.139s-.737,5.761-3.323,6.4c-2.58.66-5.216-1.263-5.865-4.189m-22.9,4.243a3.832,3.832,0,0,1,2.864-4.543,3.889,3.889,0,0,1,4.138,3.445,3.777,3.777,0,0,1-2.858,4.58,3.826,3.826,0,0,1-4.144-3.483m-23.142,2.6a2.6,2.6,0,0,1,2.135-2.91,2.735,2.735,0,0,1,.438,5.4,2.512,2.512,0,0,1-2.573-2.49m92.778-21.212c-1.091-2.78-.064-5.835,2.3-6.81s5.244.46,6.435,3.2.162,5.8-2.3,6.813-5.341-.416-6.436-3.207m23.436-10.42a3.581,3.581,0,1,1,5.013,2.05,3.847,3.847,0,0,1-5.013-2.05m22.52-12.273a2.549,2.549,0,0,1,.618-3.529,2.6,2.6,0,0,1,3.436,1.1,2.515,2.515,0,0,1-.619,3.528,2.558,2.558,0,0,1-3.435-1.1" transform="translate(-24084.16 -17214.93)" fill="#7d6b2e"/>
    <path id="パス_10422" data-name="パス 10422" d="M1491.059,1350.109c-2.976-2.267-3.849-6.172-1.948-8.719,1.871-2.569,5.8-2.979,8.888-.839,3.063,2.124,4.035,6.1,2.067,8.8-2,2.684-6.032,3.019-9.007.753m-14.721,18.043c-2.236-1.979-2.664-5.124-1.034-7.094,1.648-1.954,4.859-1.995,7.169-.093s2.791,5.095,1.074,7.129c-1.7,2.051-4.962,2.045-7.209.058m-16.029,16.892a3.833,3.833,0,0,1-.353-5.359,3.889,3.889,0,0,1,5.373.356,3.777,3.777,0,0,1,.38,5.386,3.828,3.828,0,0,1-5.4-.383m-17.2,15.7a2.6,2.6,0,0,1,.016-3.609,2.735,2.735,0,0,1,3.529,4.112,2.512,2.512,0,0,1-3.545-.5m62.591-71.7c-2.516-1.608-3.481-4.683-2.142-6.861s4.512-2.711,7.089-1.19,3.538,4.593,2.145,6.862-4.565,2.8-7.092,1.188m12.835-22.2a3.581,3.581,0,1,1,5.262-1.287,3.848,3.848,0,0,1-5.262,1.287m11.005-23.166a2.55,2.55,0,0,1-1.574-3.218,2.594,2.594,0,0,1,3.426-1.129,2.514,2.514,0,0,1,1.573,3.218,2.558,2.558,0,0,1-3.426,1.129" transform="translate(-24304.916 -17033.676)" fill="#7d6b2e"/>
    <path id="パス_10423" data-name="パス 10423" d="M1679.206,926.468c-3.739-.085-6.74-2.729-6.7-5.908,0-3.179,2.945-5.821,6.7-5.9,3.726-.082,6.85,2.564,6.847,5.908-.039,3.345-3.105,5.988-6.845,5.9m-1.3,23.25c-2.973-.286-5.167-2.579-5.006-5.132.185-2.549,2.757-4.468,5.744-4.288s5.253,2.48,5.059,5.136c-.169,2.658-2.813,4.572-5.8,4.284m-3.039,23.088a3.834,3.834,0,0,1-3.436-4.128,3.888,3.888,0,0,1,4.556-2.87,3.775,3.775,0,0,1,3.473,4.132,3.828,3.828,0,0,1-4.593,2.865m-4.682,22.812a2.6,2.6,0,0,1-2.109-2.929,2.735,2.735,0,0,1,5.272,1.251,2.514,2.514,0,0,1-3.164,1.678m8.5-94.792c-2.981.179-5.569-1.742-5.766-4.292s2.057-4.846,5.035-5.13,5.563,1.637,5.769,4.292-2.046,4.951-5.038,5.13m-2.668-25.509a3.581,3.581,0,1,1,3.5-4.133,3.847,3.847,0,0,1-3.5,4.133m-4.713-25.21a2.55,2.55,0,0,1-3.165-1.678,2.6,2.6,0,0,1,2.109-2.928,2.515,2.515,0,0,1,3.164,1.678,2.559,2.559,0,0,1-2.108,2.928" transform="translate(-24429.086 -16795)" fill="#7d6b2e"/>
    <path id="パス_10424" data-name="パス 10424" d="M1498.216,534.284c-3.075,2.13-7.057,1.753-8.894-.841-1.866-2.573-1.04-6.44,1.949-8.712,2.967-2.256,7.05-1.953,9.013.755,1.934,2.729,1.008,6.67-2.068,8.8m12.611,19.576c-2.573,1.515-5.7.95-7.066-1.209-1.35-2.172-.4-5.237,2.126-6.846s5.708-1.081,7.112,1.182c1.425,2.249.412,5.351-2.172,6.874m11.112,20.464a3.834,3.834,0,0,1-5.206-1.32,3.889,3.889,0,0,1,2-5,3.775,3.775,0,0,1,5.24,1.3,3.828,3.828,0,0,1-2.031,5.017m9.62,21.207a2.6,2.6,0,0,1-3.427-1.13,2.735,2.735,0,0,1,5-2.086,2.513,2.513,0,0,1-1.574,3.216m-48.844-81.682c-2.307,1.9-5.53,1.864-7.187-.083s-1.184-5.129,1.058-7.111,5.462-1.945,7.189.081,1.255,5.208-1.061,7.112m-17.152-19.069a3.581,3.581,0,1,1,.4-5.4,3.849,3.849,0,0,1-.4,5.4m-18.632-17.625a2.549,2.549,0,0,1-3.547.5,2.6,2.6,0,0,1-.014-3.608,2.515,2.515,0,0,1,3.547-.5,2.558,2.558,0,0,1,.014,3.607" transform="translate(-24305.059 -16590.061)" fill="#7d6b2e"/>
    <path id="パス_10425" data-name="パス 10425" d="M1121.333,323.595c-1.236,3.53-4.679,5.567-7.689,4.547-3.023-.985-4.627-4.6-3.544-8.194,1.074-3.569,4.555-5.724,7.735-4.687,3.168,1.072,4.735,4.8,3.5,8.335m21.71,8.424c-1.191,2.739-4.051,4.117-6.428,3.176-2.367-.964-3.4-4-2.3-6.789s3.982-4.229,6.449-3.224c2.475.982,3.479,4.087,2.283,6.837m21.018,10.025a3.833,3.833,0,0,1-4.987,1.992,3.888,3.888,0,0,1-1.322-5.22,3.775,3.775,0,0,1,5-2.026,3.828,3.828,0,0,1,1.305,5.253m20.249,11.5a2.6,2.6,0,0,1-3.437,1.1,2.735,2.735,0,0,1,2.82-4.627,2.513,2.513,0,0,1,.617,3.527m-87.527-37.372c-.751,2.89-3.378,4.757-5.863,4.157s-3.973-3.453-3.323-6.374,3.275-4.784,5.864-4.16,4.076,3.476,3.322,6.377m-25.085-5.346a3.581,3.581,0,1,1-2.85-4.606,3.847,3.847,0,0,1,2.85,4.606m-25.433-3.307a2.549,2.549,0,0,1-2.574,2.491,2.594,2.594,0,0,1-2.132-2.909,2.515,2.515,0,0,1,2.574-2.491,2.558,2.558,0,0,1,2.132,2.909" transform="translate(-24084.318 -16497.375)" fill="#7d6b2e"/>
  </g>
</svg>
